<mxfile host="www.draw.io" modified="2020-02-07T08:37:26.224Z" agent="Mozilla/5.0 (Macintosh; Intel Mac OS X 10_15_2) AppleWebKit/537.36 (KHTML, like Gecko) Chrome/79.0.3945.130 Safari/537.36" etag="MLI7rBR5d_OOJglzSYpR" version="12.6.5" type="github">
  <diagram id="H3WnXx273R_jGM4W-XfU" name="Page-1">
    <mxGraphModel dx="946" dy="614" grid="1" gridSize="10" guides="1" tooltips="1" connect="1" arrows="1" fold="1" page="1" pageScale="1" pageWidth="827" pageHeight="1169" math="0" shadow="0">
      <root>
        <mxCell id="0"/>
        <mxCell id="1" parent="0"/>
        <mxCell id="x_TwhM9KFDQg1H8W8PhB-1" value="torch.nn.Module" style="rounded=1;whiteSpace=wrap;html=1;" vertex="1" parent="1">
          <mxGeometry x="200" y="200" width="120" height="60" as="geometry"/>
        </mxCell>
        <mxCell id="x_TwhM9KFDQg1H8W8PhB-18" style="edgeStyle=orthogonalEdgeStyle;rounded=0;orthogonalLoop=1;jettySize=auto;html=1;entryX=0.5;entryY=1;entryDx=0;entryDy=0;" edge="1" parent="1" target="x_TwhM9KFDQg1H8W8PhB-1">
          <mxGeometry relative="1" as="geometry">
            <mxPoint x="260" y="320" as="sourcePoint"/>
          </mxGeometry>
        </mxCell>
        <mxCell id="x_TwhM9KFDQg1H8W8PhB-19" value="Agent" style="swimlane;fontStyle=1;align=center;verticalAlign=top;childLayout=stackLayout;horizontal=1;startSize=26;horizontalStack=0;resizeParent=1;resizeParentMax=0;resizeLast=0;collapsible=1;marginBottom=0;" vertex="1" parent="1">
          <mxGeometry x="180" y="320" width="170" height="148" as="geometry"/>
        </mxCell>
        <mxCell id="x_TwhM9KFDQg1H8W8PhB-21" value="" style="line;strokeWidth=1;fillColor=none;align=left;verticalAlign=middle;spacingTop=-1;spacingLeft=3;spacingRight=3;rotatable=0;labelPosition=right;points=[];portConstraint=eastwest;" vertex="1" parent="x_TwhM9KFDQg1H8W8PhB-19">
          <mxGeometry y="26" width="170" height="8" as="geometry"/>
        </mxCell>
        <mxCell id="x_TwhM9KFDQg1H8W8PhB-20" value="+ value&#xa;+ policy" style="text;strokeColor=none;fillColor=none;align=left;verticalAlign=top;spacingLeft=4;spacingRight=4;overflow=hidden;rotatable=0;points=[[0,0.5],[1,0.5]];portConstraint=eastwest;" vertex="1" parent="x_TwhM9KFDQg1H8W8PhB-19">
          <mxGeometry y="34" width="170" height="44" as="geometry"/>
        </mxCell>
        <mxCell id="x_TwhM9KFDQg1H8W8PhB-22" value="+ action(state): action&#xa;+ select_action(state): action&#xa;+ learn()" style="text;strokeColor=none;fillColor=none;align=left;verticalAlign=top;spacingLeft=4;spacingRight=4;overflow=hidden;rotatable=0;points=[[0,0.5],[1,0.5]];portConstraint=eastwest;" vertex="1" parent="x_TwhM9KFDQg1H8W8PhB-19">
          <mxGeometry y="78" width="170" height="70" as="geometry"/>
        </mxCell>
        <mxCell id="x_TwhM9KFDQg1H8W8PhB-58" style="edgeStyle=orthogonalEdgeStyle;rounded=0;orthogonalLoop=1;jettySize=auto;html=1;entryX=0.494;entryY=0.986;entryDx=0;entryDy=0;entryPerimeter=0;" edge="1" parent="1" source="x_TwhM9KFDQg1H8W8PhB-33" target="x_TwhM9KFDQg1H8W8PhB-22">
          <mxGeometry relative="1" as="geometry"/>
        </mxCell>
        <mxCell id="x_TwhM9KFDQg1H8W8PhB-33" value="DDPG" style="swimlane;fontStyle=0;childLayout=stackLayout;horizontal=1;startSize=26;fillColor=none;horizontalStack=0;resizeParent=1;resizeParentMax=0;resizeLast=0;collapsible=1;marginBottom=0;" vertex="1" parent="1">
          <mxGeometry x="60" y="520" width="140" height="52" as="geometry">
            <mxRectangle x="340" y="447" width="70" height="26" as="alternateBounds"/>
          </mxGeometry>
        </mxCell>
        <mxCell id="x_TwhM9KFDQg1H8W8PhB-51" value="Value" style="swimlane;fontStyle=1;align=center;verticalAlign=top;childLayout=stackLayout;horizontal=1;startSize=26;horizontalStack=0;resizeParent=1;resizeParentMax=0;resizeLast=0;collapsible=1;marginBottom=0;" vertex="1" parent="1">
          <mxGeometry x="20" y="20" width="160" height="54" as="geometry"/>
        </mxCell>
        <mxCell id="x_TwhM9KFDQg1H8W8PhB-53" value="&#xa;&#xa;&#xa;" style="line;strokeWidth=1;fillColor=none;align=left;verticalAlign=middle;spacingTop=-1;spacingLeft=3;spacingRight=3;rotatable=0;labelPosition=right;points=[];portConstraint=eastwest;" vertex="1" parent="x_TwhM9KFDQg1H8W8PhB-51">
          <mxGeometry y="26" width="160" height="8" as="geometry"/>
        </mxCell>
        <mxCell id="x_TwhM9KFDQg1H8W8PhB-54" value="+ forward(state, act): float" style="text;strokeColor=none;fillColor=none;align=left;verticalAlign=top;spacingLeft=4;spacingRight=4;overflow=hidden;rotatable=0;points=[[0,0.5],[1,0.5]];portConstraint=eastwest;" vertex="1" parent="x_TwhM9KFDQg1H8W8PhB-51">
          <mxGeometry y="34" width="160" height="20" as="geometry"/>
        </mxCell>
        <mxCell id="x_TwhM9KFDQg1H8W8PhB-55" value="Policy" style="swimlane;fontStyle=1;align=center;verticalAlign=top;childLayout=stackLayout;horizontal=1;startSize=26;horizontalStack=0;resizeParent=1;resizeParentMax=0;resizeLast=0;collapsible=1;marginBottom=0;" vertex="1" parent="1">
          <mxGeometry x="380" y="20" width="160" height="54" as="geometry"/>
        </mxCell>
        <mxCell id="x_TwhM9KFDQg1H8W8PhB-56" value="&#xa;&#xa;&#xa;" style="line;strokeWidth=1;fillColor=none;align=left;verticalAlign=middle;spacingTop=-1;spacingLeft=3;spacingRight=3;rotatable=0;labelPosition=right;points=[];portConstraint=eastwest;" vertex="1" parent="x_TwhM9KFDQg1H8W8PhB-55">
          <mxGeometry y="26" width="160" height="8" as="geometry"/>
        </mxCell>
        <mxCell id="x_TwhM9KFDQg1H8W8PhB-57" value="+ forward(state): action" style="text;strokeColor=none;fillColor=none;align=left;verticalAlign=top;spacingLeft=4;spacingRight=4;overflow=hidden;rotatable=0;points=[[0,0.5],[1,0.5]];portConstraint=eastwest;" vertex="1" parent="x_TwhM9KFDQg1H8W8PhB-55">
          <mxGeometry y="34" width="160" height="20" as="geometry"/>
        </mxCell>
        <mxCell id="x_TwhM9KFDQg1H8W8PhB-59" value="Memory" style="swimlane;fontStyle=1;align=center;verticalAlign=top;childLayout=stackLayout;horizontal=1;startSize=26;horizontalStack=0;resizeParent=1;resizeParentMax=0;resizeLast=0;collapsible=1;marginBottom=0;" vertex="1" parent="1">
          <mxGeometry x="480" y="120" width="160" height="60" as="geometry"/>
        </mxCell>
        <mxCell id="x_TwhM9KFDQg1H8W8PhB-61" value="" style="line;strokeWidth=1;fillColor=none;align=left;verticalAlign=middle;spacingTop=-1;spacingLeft=3;spacingRight=3;rotatable=0;labelPosition=right;points=[];portConstraint=eastwest;" vertex="1" parent="x_TwhM9KFDQg1H8W8PhB-59">
          <mxGeometry y="26" width="160" height="8" as="geometry"/>
        </mxCell>
        <mxCell id="x_TwhM9KFDQg1H8W8PhB-62" value="+ sample(num)" style="text;strokeColor=none;fillColor=none;align=left;verticalAlign=top;spacingLeft=4;spacingRight=4;overflow=hidden;rotatable=0;points=[[0,0.5],[1,0.5]];portConstraint=eastwest;" vertex="1" parent="x_TwhM9KFDQg1H8W8PhB-59">
          <mxGeometry y="34" width="160" height="26" as="geometry"/>
        </mxCell>
        <mxCell id="x_TwhM9KFDQg1H8W8PhB-67" style="edgeStyle=orthogonalEdgeStyle;rounded=0;orthogonalLoop=1;jettySize=auto;html=1;entryX=0.488;entryY=1;entryDx=0;entryDy=0;entryPerimeter=0;" edge="1" parent="1" source="x_TwhM9KFDQg1H8W8PhB-66" target="x_TwhM9KFDQg1H8W8PhB-22">
          <mxGeometry relative="1" as="geometry"/>
        </mxCell>
        <mxCell id="x_TwhM9KFDQg1H8W8PhB-66" value="A2C" style="swimlane;fontStyle=0;childLayout=stackLayout;horizontal=1;startSize=26;fillColor=none;horizontalStack=0;resizeParent=1;resizeParentMax=0;resizeLast=0;collapsible=1;marginBottom=0;" vertex="1" parent="1">
          <mxGeometry x="250" y="520" width="140" height="52" as="geometry">
            <mxRectangle x="340" y="447" width="70" height="26" as="alternateBounds"/>
          </mxGeometry>
        </mxCell>
        <mxCell id="x_TwhM9KFDQg1H8W8PhB-68" value="PPO" style="swimlane;fontStyle=0;childLayout=stackLayout;horizontal=1;startSize=26;fillColor=none;horizontalStack=0;resizeParent=1;resizeParentMax=0;resizeLast=0;collapsible=1;marginBottom=0;" vertex="1" parent="1">
          <mxGeometry x="420" y="520" width="140" height="52" as="geometry">
            <mxRectangle x="340" y="447" width="70" height="26" as="alternateBounds"/>
          </mxGeometry>
        </mxCell>
        <mxCell id="x_TwhM9KFDQg1H8W8PhB-69" value="OnMemory" style="swimlane;fontStyle=1;align=center;verticalAlign=top;childLayout=stackLayout;horizontal=1;startSize=26;horizontalStack=0;resizeParent=1;resizeParentMax=0;resizeLast=0;collapsible=1;marginBottom=0;" vertex="1" parent="1">
          <mxGeometry x="480" y="220" width="160" height="60" as="geometry"/>
        </mxCell>
        <mxCell id="x_TwhM9KFDQg1H8W8PhB-70" value="" style="line;strokeWidth=1;fillColor=none;align=left;verticalAlign=middle;spacingTop=-1;spacingLeft=3;spacingRight=3;rotatable=0;labelPosition=right;points=[];portConstraint=eastwest;" vertex="1" parent="x_TwhM9KFDQg1H8W8PhB-69">
          <mxGeometry y="26" width="160" height="8" as="geometry"/>
        </mxCell>
        <mxCell id="x_TwhM9KFDQg1H8W8PhB-71" value="+ sample(num)" style="text;strokeColor=none;fillColor=none;align=left;verticalAlign=top;spacingLeft=4;spacingRight=4;overflow=hidden;rotatable=0;points=[[0,0.5],[1,0.5]];portConstraint=eastwest;" vertex="1" parent="x_TwhM9KFDQg1H8W8PhB-69">
          <mxGeometry y="34" width="160" height="26" as="geometry"/>
        </mxCell>
      </root>
    </mxGraphModel>
  </diagram>
</mxfile>
